<mxfile host="65bd71144e">
    <diagram id="opLcPAPssFSbwAhMN3T6" name="Page-1">
        <mxGraphModel dx="411" dy="529" grid="1" gridSize="10" guides="1" tooltips="1" connect="1" arrows="1" fold="1" page="1" pageScale="1" pageWidth="827" pageHeight="1169" math="0" shadow="0">
            <root>
                <mxCell id="0"/>
                <mxCell id="1" parent="0"/>
                <mxCell id="4" value="books" style="ellipse;shape=cloud;whiteSpace=wrap;html=1;rounded=0;fillColor=#f5f5f5;strokeColor=#666666;fontColor=#333333;" parent="1" vertex="1">
                    <mxGeometry x="10" y="190" width="120" height="80" as="geometry"/>
                </mxCell>
                <mxCell id="6" value="categories" style="ellipse;shape=cloud;whiteSpace=wrap;html=1;rounded=0;fillColor=#f5f5f5;strokeColor=#666666;fontColor=#333333;" parent="1" vertex="1">
                    <mxGeometry x="130" y="110" width="120" height="80" as="geometry"/>
                </mxCell>
                <mxCell id="8" value="Actor" style="shape=umlActor;verticalLabelPosition=bottom;verticalAlign=top;html=1;outlineConnect=0;rounded=0;" parent="1" vertex="1">
                    <mxGeometry x="180" y="360" width="50" height="70" as="geometry"/>
                </mxCell>
                <mxCell id="10" value="authors" style="ellipse;shape=cloud;whiteSpace=wrap;html=1;rounded=0;fillColor=#f5f5f5;strokeColor=#666666;fontColor=#333333;" parent="1" vertex="1">
                    <mxGeometry x="270" y="130" width="120" height="80" as="geometry"/>
                </mxCell>
                <mxCell id="11" value="publishers&lt;br&gt;" style="ellipse;shape=cloud;whiteSpace=wrap;html=1;rounded=0;fillColor=#f5f5f5;strokeColor=#666666;fontColor=#333333;" vertex="1" parent="1">
                    <mxGeometry x="150" y="220" width="120" height="80" as="geometry"/>
                </mxCell>
            </root>
        </mxGraphModel>
    </diagram>
</mxfile>